<svg width="49" height="68" viewBox="0 0 49 68" fill="none" xmlns="http://www.w3.org/2000/svg">
<g clip-path="url(#clip0_88_65)">
<path d="M3.30713 31.2229V45.3046C3.30713 50.4613 3.30713 50.4613 8.21527 53.7479L21.7126 61.4829C23.7387 62.6446 27.0488 62.6446 29.0749 61.4829L42.5722 53.7479C47.4804 50.4613 47.4804 50.4613 47.4804 45.3046V31.2229C47.4804 26.0664 47.4804 26.0664 42.5722 22.7797L29.0749 15.0447C27.0488 13.883 23.7387 13.883 21.7126 15.0447L8.21527 22.7797C3.30713 26.0664 3.30713 26.0664 3.30713 31.2229Z" stroke="#6786A6" stroke-width="4" stroke-linecap="round" stroke-linejoin="round"/>
<path d="M41.088 21.6183V14.1666C41.088 8.49996 38.2344 5.66663 32.5273 5.66663H18.2594C12.5523 5.66663 9.69873 8.49996 9.69873 14.1666V21.42" stroke="#6786A6" stroke-width="4" stroke-linecap="round" stroke-linejoin="round"/>
<path d="M27.1918 31.1383L28.8183 33.66C29.0752 34.0567 29.6459 34.4533 30.0739 34.5667L32.9845 35.3033C34.7823 35.7567 35.2674 37.2867 34.0974 38.7033L32.1855 40.9983C31.9002 41.3667 31.6719 42.0183 31.7004 42.4717L31.8717 45.4467C31.9858 47.2883 30.6732 48.2233 28.961 47.5433L26.1645 46.4383C25.7365 46.2683 25.0231 46.2683 24.5951 46.4383L21.7985 47.5433C20.0864 48.2233 18.7738 47.26 18.888 45.4467L19.0592 42.4717C19.0877 42.0183 18.8594 41.3383 18.5741 40.9983L16.6622 38.7033C15.4922 37.2867 15.9773 35.7567 17.7751 35.3033L20.6857 34.5667C21.1422 34.4533 21.7129 34.0283 21.9412 33.66L23.5678 31.1383C24.595 29.6083 26.1931 29.6083 27.1918 31.1383Z" stroke="#6786A6" stroke-width="4" stroke-linecap="round" stroke-linejoin="round"/>
</g>
<defs>
<clipPath id="clip0_88_65">
<rect width="48" height="68" fill="white" transform="translate(0.946777)"/>
</clipPath>
</defs>
</svg>
