<svg width="61" height="61" viewBox="0 0 61 61" fill="none" xmlns="http://www.w3.org/2000/svg">
<g clip-path="url(#clip0_88_69)">
<path d="M60.4363 25.8554L42.293 7.71241C41.5416 6.96101 40.3232 6.96088 39.5716 7.71241L34.1285 13.1552H34.1284L30.0463 17.2374L25.9644 13.1553H25.9643L20.521 7.71228C19.7695 6.96088 18.5511 6.96075 17.7996 7.71228L0.563714 24.9484C0.202701 25.3093 0 25.7988 0 26.3092C0 26.8197 0.202829 27.3091 0.563714 27.67L6.00674 33.1129C6.38251 33.4886 6.87502 33.6765 7.36741 33.6765C7.65119 33.6765 7.9342 33.6121 8.19566 33.4872L26.8708 52.1627C26.8711 52.1628 26.8712 52.163 26.8713 52.1633C27.9968 53.2887 29.4753 53.8514 30.9536 53.8514C32.4319 53.8514 33.9103 53.2887 35.0357 52.1632C36.051 51.148 36.6409 49.8212 36.7175 48.3986C38.087 48.323 39.4347 47.764 40.4786 46.7203C41.5234 45.6755 42.0822 44.3266 42.1573 42.9559C43.528 42.881 44.8769 42.322 45.9216 41.2774C45.9224 41.2766 45.9232 41.2757 45.9241 41.2748L52.8049 34.394C53.0613 34.5164 53.343 34.5836 53.6326 34.5836C54.1429 34.5836 54.6325 34.3808 54.9933 34.02L60.4363 28.577C60.7972 28.2161 61 27.7267 61 27.2163C61 26.7057 60.7972 26.2163 60.4363 25.8554ZM4.64583 26.3092L19.1605 11.7945L21.8822 14.516L21.3092 15.0889L7.36741 29.0306L4.64583 26.3092ZM37.7573 43.9988C37.0073 44.7487 35.7871 44.7489 35.0366 43.9997C35.0363 43.9995 35.0361 43.9991 35.0357 43.9987L32.3141 41.2772C31.5626 40.5258 30.3441 40.5258 29.5927 41.2772C28.8413 42.0288 28.8413 43.2472 29.5928 43.9987L32.3139 46.7196C32.314 46.7198 32.3142 46.72 32.3144 46.7203C32.3146 46.7205 32.3149 46.7208 32.3151 46.721C32.6781 47.0844 32.8779 47.5673 32.8779 48.0808C32.8779 48.5947 32.6778 49.078 32.3142 49.4417C31.564 50.192 30.343 50.192 29.5927 49.4416C29.5925 49.4415 29.5923 49.4412 29.592 49.4411L10.9961 30.8448L24.6037 17.2374L27.325 19.9589L23.2429 24.0411C23.2425 24.0415 23.2421 24.042 23.2417 24.0424C20.9921 26.2934 20.9924 29.955 23.2427 32.2056C24.3682 33.3311 25.8465 33.8939 27.325 33.8939C28.8033 33.8939 30.2816 33.3312 31.407 32.2059C31.407 32.2059 31.407 32.2057 31.4071 32.2057L35.4893 28.1235L42.2921 34.9263C42.2924 34.9267 42.2926 34.9268 42.2929 34.9272L43.2018 35.836C43.5643 36.1993 43.7639 36.6817 43.7639 37.1949C43.7639 37.7083 43.564 38.1911 43.2015 38.5544L43.2002 38.5557C43.2 38.5558 43.1998 38.556 43.1997 38.5563C42.4495 39.3055 41.2303 39.3056 40.4799 38.5569C40.4792 38.5563 40.4787 38.5557 40.4781 38.555L37.7571 35.8342C37.0056 35.0828 35.7871 35.0828 35.0357 35.8343C34.2843 36.5859 34.2843 37.8043 35.0357 38.5558L37.7555 41.2754C37.7561 41.2761 37.7566 41.2767 37.7573 41.2774C38.5075 42.0276 38.5075 43.2484 37.7573 43.9988ZM47.2824 34.4735L45.9223 33.1134C45.922 33.1133 45.9219 33.1129 45.9216 33.1128C45.9215 33.1126 45.9214 33.1126 45.9214 33.1124L45.0145 32.2055C45.0145 32.2053 45.0143 32.2053 45.0142 32.2052L36.8501 24.0411C36.4892 23.6802 35.9998 23.4775 35.4895 23.4775C34.9791 23.4775 34.4895 23.6802 34.1288 24.0411L28.6859 29.484C27.9355 30.2345 26.7146 30.2344 25.9643 29.4842C25.2142 28.7339 25.2141 27.5132 25.9642 26.7628C25.9643 26.7627 25.9643 26.7627 25.9644 26.7626L31.4058 21.3211C31.4063 21.3207 31.4068 21.3203 31.4073 21.3198C31.4079 21.3193 31.4082 21.3188 31.4088 21.3183L35.4896 17.2373L50.0041 31.752L47.2824 34.4735ZM53.6326 29.9377L38.2108 14.5158L40.9322 11.7945L56.3539 27.2162L53.6326 29.9377Z" fill="#6786A6"/>
</g>
<defs>
<clipPath id="clip0_88_69">
<rect width="61" height="61" fill="white"/>
</clipPath>
</defs>
</svg>
