<svg width="320" height="27" viewBox="0 0 320 27" fill="none" xmlns="http://www.w3.org/2000/svg">
<g clip-path="url(#clip0_0_4)">
<path d="M6.94283 10.9858C9.44824 10.9858 12.073 10.8714 14.5784 10.7569C15.6521 10.7569 16.6066 10.6425 17.6803 10.6425C22.2139 10.4136 26.7475 10.1847 31.2811 9.95587C36.7692 9.727 42.1379 9.38369 47.626 9.15482C55.3808 8.69708 63.1356 8.35378 70.8905 7.89604C72.6801 7.7816 74.4696 7.7816 76.2592 7.66717C80.7928 7.43829 85.3264 7.20942 89.86 7.09499C94.3936 6.86612 98.9272 6.63725 103.461 6.52281C105.25 6.40838 107.04 6.29394 108.83 6.29394C115.988 6.06507 123.266 5.8362 130.424 5.60733C134.838 5.49289 139.252 5.37846 143.786 5.14959C145.576 5.14959 147.246 5.03515 149.035 5.03515C155.955 4.92072 162.994 4.80628 169.914 4.69185C176.834 4.57741 183.634 4.46298 190.554 4.34854C192.343 4.34854 194.133 4.34854 196.042 4.34854C200.575 4.34854 204.99 4.34854 209.523 4.34854C216.562 4.34854 223.482 4.34854 230.521 4.23411C232.788 4.23411 235.055 4.23411 237.321 4.23411C242.094 4.23411 246.866 4.23411 251.638 4.23411C251.996 4.23411 252.473 4.23411 252.831 4.23411C242.094 4.34854 231.237 4.46298 220.499 4.69185C215.966 4.80628 211.551 4.80628 207.018 4.92072C205.109 4.92072 203.081 4.92072 201.172 5.03515C194.61 5.14959 188.168 5.37846 181.606 5.49289C174.09 5.72176 166.573 5.8362 159.057 6.06507C157.745 6.06507 156.552 6.17951 155.239 6.17951C151.183 6.40838 147.246 6.52281 143.19 6.75168C135.077 7.09499 126.964 7.43829 118.851 7.7816C117.658 7.7816 116.465 7.89604 115.272 8.01047C111.335 8.23934 107.279 8.58265 103.342 8.81152C96.1832 9.26926 89.1442 9.727 81.9859 10.1847C80.077 10.2992 78.0488 10.528 76.1399 10.6425C71.6063 10.9858 67.0727 11.3291 62.5391 11.7868C56.8125 12.2446 50.9665 12.7023 45.2398 13.1601C37.2464 13.8467 29.1336 14.5333 21.1402 15.2199C19.2313 15.3343 17.3224 15.5632 15.2942 15.6776C11.8344 16.0209 8.3745 16.3642 4.91464 16.7076C4.55673 16.7076 4.19881 16.9364 4.19881 17.3942C4.19881 17.7375 4.55673 18.0808 4.91464 18.0808C6.227 18.0808 7.42005 18.1952 8.73241 18.1952C8.4938 18.7674 8.3745 19.1107 8.3745 19.454C8.3745 20.7128 9.44824 21.8571 10.8799 21.8571C20.7823 21.285 30.5653 20.5984 40.4676 20.1406C49.0576 19.7973 57.6476 19.3396 66.2376 18.9963C75.6627 18.5385 85.2071 18.0808 94.6322 17.7375C97.6149 17.623 100.598 17.5086 103.58 17.2797C104.415 17.2797 105.25 17.1653 106.205 17.1653C121.476 16.822 136.747 16.3642 152.018 16.0209C160.131 15.7921 168.363 15.5632 176.476 15.4488C179.458 15.3343 182.322 15.3343 185.304 15.2199C200.933 14.991 216.562 14.7622 232.191 14.5333C238.872 14.4188 245.553 14.3044 252.235 14.19C257.961 14.0755 263.688 14.0755 269.415 13.8467C274.187 13.7322 278.84 13.5034 283.612 13.3889C285.998 13.2745 288.384 13.2745 290.651 13.1601C296.02 12.8168 301.388 12.4734 306.757 12.1301C306.399 12.5879 306.399 13.2745 306.518 13.7322C306.638 14.3044 306.996 14.7622 307.592 14.991C308.069 15.2199 308.785 15.4488 309.263 15.2199C310.456 14.7622 311.649 14.3044 312.722 13.8467C312.722 13.8467 312.722 13.8467 312.603 13.8467C312.722 13.8467 312.722 13.7322 312.842 13.7322C312.961 13.7322 313.08 13.6178 313.08 13.6178H312.961C313.557 13.3889 314.154 13.1601 314.87 12.8168C315.466 12.5879 316.182 12.2446 316.779 12.0157C317.495 11.6724 318.091 11.3291 318.807 10.9858C319.523 10.6425 320 9.727 320 8.92595C320 8.46821 319.881 8.12491 319.642 7.66717C319.403 7.20942 318.807 6.63725 318.21 6.52281C317.614 6.40838 317.017 6.29394 316.421 6.29394C316.302 6.29394 316.182 6.29394 316.063 6.29394C315.705 6.29394 315.228 6.29394 314.87 6.40838C313.915 6.52281 313.08 6.63725 312.126 6.63725C311.41 6.63725 310.694 6.75168 309.859 6.75168C307.831 6.86612 305.922 6.98055 303.894 7.20942C303.417 7.20942 302.82 7.32386 302.343 7.32386C302.581 7.09499 302.701 6.86612 302.701 6.63725C302.82 6.40838 302.82 6.17951 302.82 5.95064C302.82 5.8362 302.82 5.60733 302.939 5.49289C302.939 5.26402 302.939 5.03515 302.82 4.92072C302.82 4.92072 302.939 4.92072 302.939 4.80628C303.297 4.57741 303.655 4.34854 303.894 3.8908C304.132 3.54749 304.252 3.08975 304.252 2.63201C304.252 2.17427 304.132 1.83096 303.894 1.37322C303.774 1.25879 303.655 1.02992 303.536 0.915482C303.178 0.572177 302.82 0.457741 302.462 0.343306C301.746 0.114435 300.911 0 300.076 0C299.36 0 298.764 0 298.048 0C297.093 0 296.139 0 295.184 0C293.872 0 292.44 0 291.128 0C287.549 0 283.97 0 280.391 0C277.05 0 273.59 0 270.25 0C267.148 0 264.165 0 261.063 0C248.775 0 236.606 0.114435 224.317 0.228871C215.131 0.343306 205.944 0.457741 196.758 0.457741C192.701 0.457741 188.526 0.572177 184.469 0.686612C175.283 0.915482 166.096 1.02992 156.91 1.25879C154.285 1.25879 151.66 1.37322 149.035 1.37322C147.485 1.37322 146.053 1.48766 144.502 1.48766C135.435 1.83096 126.367 2.17427 117.3 2.51758C114.556 2.63201 111.812 2.74645 108.949 2.86088C107.398 2.86088 105.847 2.97532 104.296 3.08975C95.2288 3.54749 86.2809 4.00524 77.2137 4.46298C72.5608 4.69185 67.9079 4.92072 63.2549 5.26402C55.2615 5.72177 47.268 6.17951 39.3939 6.75168C32.4742 7.20942 25.5545 7.55273 18.6348 7.89604C17.561 8.01047 16.4873 8.01047 15.2942 8.12491C13.5046 8.23934 11.715 8.23934 9.92547 8.35378C8.3745 8.81152 6.70422 8.81152 5.15325 8.81152C5.03395 8.35378 4.55673 8.01047 4.19881 8.12491C3.12506 8.12491 2.17062 8.23934 1.09687 8.35378C0.61965 8.46821 0.142428 8.69708 0.0231231 9.15482C-0.0961822 9.727 0.261734 10.2992 0.738955 10.4136C1.21618 10.528 1.6934 10.6425 2.17062 10.7569C2.64784 10.8714 3.00576 10.8714 3.48298 10.8714C4.67603 10.9858 5.74978 10.9858 6.94283 10.9858ZM286.117 7.32386C287.549 7.32386 289.1 7.32386 290.532 7.32386C290.651 7.66716 290.89 7.89604 291.128 8.12491C290.532 8.12491 289.935 8.23934 289.458 8.23934C288.384 8.23934 287.31 8.35378 286.237 8.35378C281.464 8.46821 276.811 8.69708 272.039 8.81152C269.892 8.92595 267.744 9.04039 265.597 9.04039C262.256 9.04039 258.796 9.15482 255.456 9.15482C247.701 9.26926 240.065 9.3837 232.311 9.49813C217.278 9.727 202.365 9.95587 187.332 10.1847C176.595 10.2992 165.858 10.6425 155.12 10.9858C139.014 11.4435 122.788 11.7868 106.682 12.2446C103.461 12.359 100.24 12.4734 97.0184 12.7023C87.8318 13.1601 78.6453 13.5034 69.4588 13.9611C60.5109 14.4188 51.4437 14.7622 42.4958 15.2199C41.6607 15.2199 40.8255 15.3343 39.9904 15.3343C42.3765 15.1055 44.8819 14.991 47.268 14.7622C55.7387 14.19 64.2094 13.5034 72.6801 12.9312C75.6627 12.7023 78.6453 12.4734 81.5087 12.2446C83.0596 12.1301 84.6106 12.0157 86.0423 12.0157C94.9902 11.558 103.819 10.9858 112.647 10.528C114.318 10.4136 116.107 10.2992 117.777 10.1847C120.283 10.0703 122.788 9.95587 125.174 9.95587C134.242 9.61257 143.309 9.26926 152.376 8.92595C154.404 8.81152 156.432 8.81152 158.341 8.69708C158.819 8.69708 159.415 8.69708 159.892 8.69708C161.324 8.69708 162.756 8.69708 164.068 8.58265C173.135 8.35378 182.322 8.23934 191.389 8.01047C195.565 7.89604 199.74 7.7816 203.916 7.7816C217.397 7.66716 230.998 7.55273 244.48 7.43829C258.558 7.43829 272.397 7.32386 286.117 7.32386Z" fill="#38618C"/>
<path d="M24.8163 27C25.177 27 25.4694 26.7122 25.4694 26.3571C25.4694 26.0021 25.177 25.7143 24.8163 25.7143C24.4557 25.7143 24.1633 26.0021 24.1633 26.3571C24.1633 26.7122 24.4557 27 24.8163 27Z" fill="#38618C"/>
</g>
<defs>
<clipPath id="clip0_0_4">
<rect width="320" height="27" fill="white"/>
</clipPath>
</defs>
</svg>
